<?xml version="1.0" encoding="UTF-8" standalone="no"?>
<!DOCTYPE svg PUBLIC "-//W3C//DTD SVG 1.1//EN" "http://www.w3.org/Graphics/SVG/1.1/DTD/svg11.dtd">
<svg width="100%" height="100%" viewBox="0 0 2732 2048" version="1.1" xmlns="http://www.w3.org/2000/svg" xmlns:xlink="http://www.w3.org/1999/xlink" xml:space="preserve" xmlns:serif="http://www.serif.com/" style="fill-rule:evenodd;clip-rule:evenodd;stroke-linejoin:round;stroke-miterlimit:2;">
    <rect id="Artboard1" x="0" y="0" width="2732" height="2048" style="fill:none;"/>
    <clipPath id="_clip1">
        <rect id="Artboard11" serif:id="Artboard1" x="0" y="0" width="2732" height="2048"/>
    </clipPath>
    <g clip-path="url(#_clip1)">
        <g id="Layer2">
            <path d="M-3.586,651.471C-3.586,651.471 1023.83,1559.99 2378.75,685.793L2304.91,886.221C2304.91,886.221 1133.01,1658.91 -1.345,758.474C-1135.7,-141.967 -3.586,651.471 -3.586,651.471" style="fill:url(#_Linear2);"/>
            <path d="M-2.898,756.357L-4.192,1077.46C-4.192,1077.46 1012.06,1688.59 2075.3,1602.38L2329.69,819.042C2329.69,819.042 1102.87,1576.04 -2.898,756.357Z" style="fill:url(#_Radial3);"/>
        </g>
        <g id="Layer1">
            <g transform="matrix(1,0,0,1,-4.03785,-102.965)">
                <path d="M2744.05,423.505C2745.55,421.804 2738.47,1406.55 2737.97,1406.77C2454.62,1532.72 1801.01,1746.12 1223.68,1828.09C580.929,1919.35 -1.305,1907.46 -1.305,1907.46L1.926,1443.92C1.926,1443.92 1458.39,1876.73 2744.05,423.505Z" style="fill:url(#_Linear4);"/>
            </g>
            <path d="M2733.95,562.811C2735.57,561.216 2738.47,1406.55 2737.97,1406.77C2454.62,1532.72 1801.01,1746.12 1223.68,1828.09C580.929,1919.35 -1.305,1907.46 -1.305,1907.46L-1.779,1444.45C-1.779,1444.45 1520.98,1759.63 2733.95,562.811Z" style="fill:url(#_Linear5);"/>
        </g>
    </g>
    <defs>
        <linearGradient id="_Linear2" x1="0" y1="0" x2="1" y2="0" gradientUnits="userSpaceOnUse" gradientTransform="matrix(1929.69,404.471,-404.471,1929.69,25.5908,721.968)"><stop offset="0" style="stop-color:rgb(223,127,159);stop-opacity:1"/><stop offset="0.21" style="stop-color:rgb(222,118,143);stop-opacity:1"/><stop offset="0.46" style="stop-color:rgb(221,96,102);stop-opacity:1"/><stop offset="1" style="stop-color:rgb(222,135,178);stop-opacity:1"/></linearGradient>
        <radialGradient id="_Radial3" cx="0" cy="0" r="1" gradientUnits="userSpaceOnUse" gradientTransform="matrix(1843.28,-242.271,242.271,1843.28,495.089,1198.6)"><stop offset="0" style="stop-color:rgb(243,190,81);stop-opacity:1"/><stop offset="0.36" style="stop-color:rgb(196,86,67);stop-opacity:1"/><stop offset="1" style="stop-color:rgb(68,108,121);stop-opacity:1"/></radialGradient>
        <linearGradient id="_Linear4" x1="0" y1="0" x2="1" y2="0" gradientUnits="userSpaceOnUse" gradientTransform="matrix(2560,-528.959,528.959,2560,74.5464,1717.46)"><stop offset="0" style="stop-color:rgb(222,114,134);stop-opacity:1"/><stop offset="0.51" style="stop-color:rgb(221,93,97);stop-opacity:1"/><stop offset="0.75" style="stop-color:rgb(221,103,117);stop-opacity:1"/><stop offset="1" style="stop-color:rgb(222,132,171);stop-opacity:1"/></linearGradient>
        <linearGradient id="_Linear5" x1="0" y1="0" x2="1" y2="0" gradientUnits="userSpaceOnUse" gradientTransform="matrix(2560,-528.959,528.959,2560,74.5464,1717.46)"><stop offset="0" style="stop-color:rgb(131,60,144);stop-opacity:1"/><stop offset="0.51" style="stop-color:rgb(41,36,101);stop-opacity:1"/><stop offset="0.75" style="stop-color:rgb(48,60,122);stop-opacity:1"/><stop offset="1" style="stop-color:rgb(68,127,181);stop-opacity:1"/></linearGradient>
    </defs>
</svg>
