<?xml version="1.0" encoding="UTF-8" standalone="no"?>
<svg
   xmlns:dc="http://purl.org/dc/elements/1.1/"
   xmlns:cc="http://creativecommons.org/ns#"
   xmlns:rdf="http://www.w3.org/1999/02/22-rdf-syntax-ns#"
   xmlns:svg="http://www.w3.org/2000/svg"
   xmlns="http://www.w3.org/2000/svg"
   viewBox="0 0 384 413"
   height="413"
   width="384"
   xml:space="preserve"
   id="svg2"
   version="1.1"><metadata
     id="metadata8"><rdf:RDF><cc:Work
         rdf:about=""><dc:format>image/svg+xml</dc:format><dc:type
           rdf:resource="http://purl.org/dc/dcmitype/StillImage" /></cc:Work></rdf:RDF></metadata><defs
     id="defs6" /><g
     transform="matrix(1.3333333,0,0,-1.3333333,0,413)"
     id="g10"><g
       transform="scale(0.1)"
       id="g12"><path
         id="path14"
         style="fill:#100f0d;fill-opacity:1;fill-rule:nonzero;stroke:none"
         d="M 969.055,571.121 H 2778.19 V 1702.9 c 0,61.99 -3.34,95.95 -3.34,95.95 C 2624.39,1273.55 1680.94,689.441 969.055,571.121 M 2670.85,2105.81 c 49.98,-22.05 70.09,-41.32 70.53,-41.8 -159.09,595.1 -701.98,1033.47 -1347.14,1033.47 -218.45,0 -425.166,-50.31 -609.244,-139.89 0,0 17.359,5.09 26.442,6.78 69.73,12.81 103.66,-21.84 148.582,-80.95 22.203,-29.24 85.15,-22.64 115.96,-17.25 57.46,10.04 196.61,31.62 377.95,-20.92 379.11,-110 615.81,-526.11 793.61,-623.36 97.91,-53.57 185.89,-58.15 272.17,-74.38 67.2,-12.63 116.88,-26.6 151.14,-41.7 m -2105.784,710.82 15.942,19.06 v 0.04 C 229.188,2582.61 0,2169.54 0,1702.96 c 0,-0.45 0.078125,-0.88 0.078125,-1.4 L 0.0390625,571.219 H 425.246 c 0,0 -13.812,4.73 -15.09,5.019 -62.476,22.492 -85.441,42.032 -111.172,68.344 -53.015,54.148 -129.152,281.277 380.618,740.888 129.711,117 321.598,250.25 518.278,365.63 60.47,35.36 118.44,67.39 146.15,83.23 -82.83,-7.28 -226.38,-65.63 -345.624,-128.1 -153.597,-80.47 -476.418,-289.3 -595.105,-417.27 -1.461,22.9 -5.528,61.45 -30.883,179.31 -24.004,111.54 -94.059,322.74 -83.508,560.93 11.543,260.55 111.793,410.45 212.953,521.83 23.594,25.9 68.043,72.07 53.387,112.63 -22.75,60.28 -27.559,105.45 9.816,152.97 M 1728.03,957.77 c 618.2,342.08 833.64,649.78 774.39,795.97 -47.53,117.47 -454.19,29.31 -1020.17,-274.4 C 929.313,1182.55 603.555,839.352 652.395,737.309 704.164,629.191 1272.01,705.25 1728.03,957.77 m -804.417,40.07 c 131.837,122.83 320.327,263.59 553.487,398.06 20.79,-43.64 33.57,-91.97 34.62,-143.53 3.67,-191.34 -147.94,-349.472 -339.02,-353.569 -96.45,-1.871 -184.993,36.289 -249.087,99.039" /><path
         id="path16"
         style="fill:#100f0d;fill-opacity:1;fill-rule:nonzero;stroke:none"
         d="m 2610.4,384.871 h -91.88 V 6.51172 h 258.93 V 85.9492 H 2610.4 V 384.871" /><path
         id="path18"
         style="fill:#100f0d;fill-opacity:1;fill-rule:nonzero;stroke:none"
         d="M 2297.13,384.871 H 2205.2 V 6.51172 h 258.94 V 85.9492 H 2297.13 V 384.871" /><path
         id="path20"
         style="fill:#100f0d;fill-opacity:1;fill-rule:nonzero;stroke:none"
         d="M 2143.13,384.871 H 1859.37 V 6.51172 h 288.07 V 85.9492 h -196.19 v 73.5198 h 160.01 v 76.761 h -160.01 v 69.161 h 191.88 v 79.48" /><path
         id="path22"
         style="fill:#100f0d;fill-opacity:1;fill-rule:nonzero;stroke:none"
         d="M 634.906,195.68 C 634.906,87.5703 701.922,0 828.848,0 902.91,0 952.086,28.6602 987.207,68.6719 l -76.215,56.7501 c -16.207,-22.16 -43.226,-40.0118 -84.316,-40.0118 -60.539,0 -95.028,46.5118 -95.028,110.2698 0,64.332 35.575,111.351 98.29,111.351 36.75,0 61.066,-18.383 75.656,-41.07 l 74.597,53.519 c -33.523,42.161 -79.988,71.872 -150.253,71.872 -127.469,0 -195.032,-87.551 -195.032,-195.672" /><path
         id="path24"
         style="fill:#100f0d;fill-opacity:1;fill-rule:nonzero;stroke:none"
         d="M 326.211,384.891 H 2.44922 V 305.41 H 118.129 V 6.51172 h 91.902 V 305.41 h 116.18 v 79.481" /><path
         id="path26"
         style="fill:#100f0d;fill-opacity:1;fill-rule:nonzero;stroke:none"
         d="m 2839.86,49.5898 h -4.91 v 10.8008 h 4.91 c 4.14,0 6.33,-1.9609 6.33,-5.4492 0,-3.5 -2.29,-5.3516 -6.33,-5.3516 z m 11.67,-6.7578 c 5.35,1.9571 8.62,6.4297 8.62,12.1094 0,9.3672 -6.1,14.7188 -17.02,14.7188 h -21.48 V 25.2617 h 13.3 v 15.8164 h 3.71 l 8.18,-15.8164 h 14.29 l -9.6,17.5703" /><path
         id="path28"
         style="fill:#100f0d;fill-opacity:1;fill-rule:nonzero;stroke:none"
         d="m 2839.54,13.6992 c -17.34,0 -32.08,12.7617 -32.08,33.3789 0,20.7305 14.74,33.3828 32.08,33.3828 17.34,0 32.06,-12.6523 32.06,-33.3828 0,-20.6172 -14.72,-33.3789 -32.06,-33.3789 z m 0,73.961 c -21.93,0 -40.48,-15.4883 -40.48,-40.5821 0,-24.9687 18.55,-40.56638 40.48,-40.56638 21.92,0 40.46,15.59768 40.46,40.56638 0,25.0938 -18.54,40.5821 -40.46,40.5821" /><path
         id="path30"
         style="fill:#100f0d;fill-opacity:1;fill-rule:nonzero;stroke:none"
         d="m 404.184,137.309 49.211,134.05 45.941,-134.05 z m 91.371,247.582 H 418.25 L 257.156,6.51172 h 97.321 L 375.543,61.6289 H 527.434 L 547.992,6.51172 H 650.148 L 495.555,384.891" /><path
         id="path32"
         style="fill:#100f0d;fill-opacity:1;fill-rule:nonzero;stroke:none"
         d="m 1185.7,85.9688 c -61.08,0 -96.75,46.4802 -96.75,109.7112 0,64.332 35.67,111.351 96.75,111.351 60.54,0 96.23,-47.019 96.23,-111.351 0,-63.231 -35.69,-109.7112 -96.23,-109.7112 z m 0,305.3832 C 1065.15,391.352 992.176,303.801 992.176,195.68 992.176,87.5703 1065.15,0 1185.7,0 c 119.45,0 192.96,87.5703 192.96,195.68 0,108.121 -73.51,195.672 -192.96,195.672" /><path
         id="path34"
         style="fill:#100f0d;fill-opacity:1;fill-rule:nonzero;stroke:none"
         d="m 1658.22,85.4102 h -54.61 v 78.3908 h 56.23 c 49.19,0 70.27,-10.84 70.27,-39.469 0,-30.2617 -16.23,-38.9218 -71.89,-38.9218 z M 1603.61,311.34 h 36.24 c 44.31,0 62.15,-9.192 62.15,-36.199 0,-28.641 -17.33,-39.481 -51.9,-39.481 h -46.49 z m 137.85,-99.988 c 36.21,17.847 52.42,42.168 52.42,84.339 0,56.188 -44.32,89.18 -131.36,89.18 H 1516.59 V 6.51172 h 164.33 c 96.19,0 142.68,35.09768 142.68,108.63628 0,50.782 -28.64,84.852 -82.14,96.204" /></g></g></svg>